<svg width="180" height="auto" viewBox="0 0 166 37" fill="none" xmlns="http://www.w3.org/2000/svg">
    <path
        d="M16.5553 0.803118C16.5553 0.897357 16.3857 1.97168 16.1972 3.21563C15.9899 4.45958 15.5564 7.21136 15.236 9.34116C14.8967 11.471 14.5386 13.9023 14.4067 14.7316C14.1805 16.1829 14.0862 16.3714 12.9177 17.9923C12.2203 18.9158 11.6549 19.7263 11.6549 19.7451C11.6549 19.7828 12.0318 20.009 12.503 20.2729C12.9742 20.5367 13.3512 20.8006 13.3512 20.876C13.3512 20.9702 13.0873 22.61 12.7858 24.5701C12.4653 26.5115 11.9565 29.6967 11.636 31.6758C11.3345 33.6359 11.0329 35.483 10.9764 35.7657L10.8633 36.2935H13.7847H16.7061L16.8192 35.7657C16.8757 35.483 17.3469 32.5804 17.8746 29.3198C18.3835 26.0591 18.8924 22.8738 19.0055 22.2519C19.4202 19.764 22.3981 1.02929 22.3981 0.859662C22.3981 0.746575 21.2672 0.671184 19.4767 0.671184C17.8746 0.671184 16.5553 0.727727 16.5553 0.803118Z"
        fill="#003B82" />
    <path
        d="M126.533 7.17365L126.42 8.21028H125.402H124.403L124.177 9.56731C124.064 10.3212 123.932 11.0563 123.894 11.1694C123.838 11.339 124.101 11.4144 124.836 11.4144H125.873L125.76 12.206C125.685 12.6583 125.628 13.0918 125.609 13.2049C125.609 13.318 126.269 13.4123 127.23 13.45C129.021 13.5065 128.908 13.5819 129.171 12.1118L129.285 11.4144H130.283H131.282L131.509 10.1139C131.829 8.13488 131.848 8.21028 130.755 8.21028H129.812L129.925 7.17365L130.057 6.13702H128.361H126.665L126.533 7.17365Z"
        fill="#003B82" />
    <path
        d="M144.344 16.1264V22.7419L145.437 22.6854L146.511 22.6289L146.568 20.2163L146.624 17.8227H148.264C151.807 17.8227 153.447 16.8803 153.956 14.5809C154.239 13.1861 153.9 11.9422 152.938 10.9432C151.826 9.77468 150.827 9.52966 147.227 9.52966H144.344V16.1264ZM150.545 11.6595C152.09 12.4511 152.184 14.9201 150.714 15.674C150.375 15.8437 149.583 15.9379 148.358 15.9379H146.511V13.6762V11.4144H148.302C149.338 11.4144 150.281 11.5087 150.545 11.6595Z"
        fill="#003B82" />
    <path
        d="M155.652 16.1262V22.7229H156.783H157.914V20.5931V18.4633L158.668 17.7282C159.083 17.3324 159.441 17.0309 159.478 17.0874C159.516 17.1251 160.383 18.3879 161.401 19.8769C162.419 21.347 163.361 22.6098 163.474 22.6664C163.606 22.7041 164.209 22.7229 164.85 22.6852L166 22.6287L163.474 19.0476C162.079 17.0686 160.93 15.4288 160.93 15.3723C160.93 15.3157 161.947 14.0529 163.191 12.564C164.435 11.0938 165.491 9.79333 165.566 9.69909C165.623 9.60485 165.095 9.52946 164.341 9.52946H163.003L160.515 12.5263L158.008 15.5231L157.952 12.5263L157.914 9.52946H156.783H155.652V16.1262Z"
        fill="#003B82" />
    <path
        d="M7.71622 13.2992C5.36025 13.8081 3.79589 15.5609 2.11844 19.6132C0.874485 22.6288 0.459835 24.7209 0.591769 27.3973C0.704856 29.9041 1.34568 32.7689 2.19383 34.4087C3.06083 36.1238 4.96445 36.972 7.05655 36.595C7.69738 36.4631 7.73507 36.4254 7.62198 35.8599C7.56544 35.5207 7.20733 34.2013 6.81153 32.9385C6.15186 30.7711 6.05762 30.5826 5.51104 30.3564C4.73828 30.036 4.30478 29.3952 4.30478 28.5659C4.30478 27.9062 4.9833 23.7974 5.49219 21.366C5.64297 20.6686 5.90684 19.877 6.07647 19.6132C6.45342 19.0477 7.43351 18.52 7.88585 18.6331C8.14972 18.6896 8.48898 18.3315 9.28059 17.1818C9.86487 16.3525 10.6942 15.1651 11.1277 14.562C11.5423 13.9777 11.8627 13.45 11.8062 13.3934C11.6366 13.2049 8.50783 13.1295 7.71622 13.2992Z"
        fill="#003B82" />
    <path
        d="M11.0536 15.7869C8.79185 18.8026 8.69761 18.9534 9.03687 19.1607C9.18765 19.2549 9.5646 19.3303 9.88502 19.3303C10.5447 19.3303 10.8839 18.9911 12.486 16.8613C13.6357 15.3157 13.6923 14.9953 12.9949 14.0906L12.6556 13.6383L11.0536 15.7869Z"
        fill="#003B82" />
    <path
        d="M28.2219 15.4478C24.6973 16.6729 21.4555 20.4424 20.4189 24.5136C19.0996 29.659 20.8335 34.5217 24.6031 36.2369C27.1852 37.4243 31.0679 36.8588 33.2165 34.9741C33.5558 34.6537 33.895 34.4086 33.9327 34.4086C33.9893 34.4086 33.9704 34.7667 33.8762 35.2002C33.8008 35.6526 33.7254 36.0672 33.7066 36.1426C33.7066 36.2369 35.0259 36.2934 36.628 36.2934C38.23 36.2934 39.5494 36.218 39.5494 36.1426C39.5494 36.0672 39.8886 33.8809 40.3033 31.2988C42.075 20.2163 42.7535 15.919 42.7535 15.7494C42.7535 15.6363 41.6603 15.5609 39.8321 15.5609H36.9107V16.0698C36.9107 16.3713 36.8541 16.786 36.7976 17.031C36.6845 17.4457 36.6468 17.4268 35.7987 16.6352C34.5547 15.4666 33.1788 14.9954 31.1056 15.0143C29.8993 15.0143 29.1266 15.1274 28.2219 15.4478ZM33.2165 20.3105C33.6312 20.4424 34.2908 20.8571 34.6867 21.2717C37.3442 24.0235 35.6479 29.904 31.7652 31.3553C30.5401 31.8265 29.8993 31.8642 28.9758 31.5626C26.6198 30.771 25.4512 27.9062 26.3182 25.0413C27.3926 21.5356 30.3894 19.4624 33.2165 20.3105Z"
        fill="#003B82" />
    <path
        d="M57.0603 20.782C55.2697 23.9861 53.7242 26.7756 53.6111 27.0018C53.498 27.2468 53.3661 27.4352 53.3096 27.4352C53.253 27.4352 52.7064 24.872 52.1033 21.7244C51.5002 18.5956 50.9536 15.9193 50.8971 15.7873C50.8405 15.6177 50.0112 15.5612 47.6175 15.5612C44.5642 15.5612 44.4323 15.58 44.5454 15.9193C44.6961 16.3905 47.2217 25.117 49.1065 31.6195L50.5578 36.6707H52.1033H53.63L55.5713 33.1273C58.5115 27.7934 60.5283 24.2123 60.5848 24.2688C60.6225 24.3254 61.546 29.1504 62.6769 35.1063L62.9596 36.6707H64.5051L66.0318 36.6518L68.1805 33.1273C69.3679 31.186 72.2704 26.474 74.6452 22.6479C77.0012 18.8218 78.9425 15.6931 78.9425 15.6742C78.9425 15.5612 72.6662 15.7308 72.5531 15.8627C72.4024 16.0324 70.7061 19.1988 67.747 24.8531C66.9365 26.3986 66.258 27.6237 66.2203 27.586C66.126 27.4918 63.2989 15.5989 63.2989 15.2973C63.2989 15.0523 63.035 14.9957 61.8099 14.9957H60.3209L57.0603 20.782Z"
        fill="#003B82" />
    <path
        d="M84.9926 15.2973C83.5037 15.6931 82.5613 16.1643 81.2985 17.1255C75.2295 21.7055 74.1552 31.676 79.3006 35.5398C82.1089 37.6507 86.6324 37.3868 89.403 34.9555L90.0627 34.3712L89.9496 35.012C89.8931 35.3513 89.8177 35.7848 89.78 35.9544C89.7234 36.2748 89.9684 36.2937 92.6071 36.2937H95.5097L95.6228 35.6717C95.6793 35.3513 96.3955 30.8278 97.2248 25.6447C98.0541 20.4616 98.7704 16.1077 98.8269 15.9758C98.8834 15.8062 98.2426 15.7496 95.9997 15.7496H93.0783L92.9652 16.2585C92.6825 17.559 92.7202 17.5402 91.9663 16.8428C91.0428 15.9569 90.4962 15.6554 89.3088 15.2973C88.0648 14.9203 86.3497 14.9203 84.9926 15.2973ZM89.5538 20.5369C90.2323 20.8197 91.3066 21.9505 91.6082 22.7044C93.116 26.6248 90.0438 31.7702 86.1424 31.7702C81.9016 31.7702 80.6011 25.9463 84.0126 22.1202C85.4638 20.4804 87.8198 19.8019 89.5538 20.5369Z"
        fill="#003B82" />
    <path
        d="M107.893 15.2783C102.295 16.6918 98.0924 23.3074 98.8652 29.4518C99.3929 33.636 101.674 36.2747 105.292 36.8967C107.611 37.2925 110.438 36.5008 112.191 34.9742L112.888 34.3522L112.794 34.8422C112.737 35.125 112.643 35.5585 112.586 35.8223L112.492 36.2935H115.225C116.733 36.2935 118.015 36.2935 118.09 36.3124C118.278 36.3124 118.429 35.615 119.108 31.2989C119.428 29.3199 119.88 26.4361 120.125 24.8906C121.087 18.9724 121.539 16.0887 121.539 15.9191C121.539 15.8249 120.276 15.7495 118.637 15.7495H115.753L115.621 16.6542L115.508 17.5588L114.678 16.7672C113.133 15.2971 110.325 14.6751 107.893 15.2783ZM112.436 20.631C113.34 21.0645 114.283 22.2331 114.584 23.364C114.697 23.7975 114.754 24.7775 114.716 25.5503C114.452 29.8099 110.193 33.014 107.007 31.3366C105.387 30.4696 104.482 28.0759 104.934 25.8707C105.782 21.7619 109.382 19.2551 112.436 20.631Z"
        fill="#003B82" />
    <path
        d="M123.8 15.9568C123.8 16.0888 123.084 20.6688 122.198 26.1346C121.312 31.6193 120.596 36.1617 120.596 36.2559C120.596 36.3313 121.915 36.4255 123.517 36.4632C125.119 36.4821 126.439 36.4444 126.439 36.369C126.439 36.2936 126.646 34.9554 126.91 33.391C127.155 31.8267 127.626 28.9241 127.946 26.9639C128.248 24.9849 128.794 21.6677 129.134 19.5568L129.756 15.7495H126.778C124.667 15.7495 123.8 15.8061 123.8 15.9568Z"
        fill="#003B82" />
    <path
        d="M132.411 29.6967C131.526 29.9606 130.602 30.8087 130.093 31.8077C129.679 32.6181 129.622 32.9762 129.679 33.9752C129.735 35.0118 129.829 35.238 130.376 35.8034C131.092 36.5573 131.771 36.7269 132.77 36.4631C133.844 36.1615 134.636 35.483 135.182 34.371C136.087 32.5616 135.71 30.5826 134.334 29.8475C133.655 29.4894 133.241 29.4517 132.411 29.6967Z"
        fill="#003B82" />
    <path
        d="M6.75586 30.5828C6.75586 30.8655 8.47101 36.1052 8.56524 36.1052C8.9799 36.1052 9.7715 35.389 9.7715 35.0309C9.7715 34.2958 8.65948 31.0917 8.30138 30.7713C7.96212 30.4697 6.75586 30.319 6.75586 30.5828Z"
        fill="#003B82" />
</svg>