<svg xmlns="http://www.w3.org/2000/svg" width="180" height="auto" viewBox="0 0 139.137 36.98"><defs><style>.a{fill:#3BD55A;}</style></defs><g transform="translate(-659.445 -419.125)"><path d="M-6865.839,1777.125l-3.779,5.064h-17.871v26.764h26.717v-13.514l5.042-6.581v24.878h-36.824v-36.61Z" transform="translate(7552 -1358)"/><path class="a" d="M-6846.949,1790.436l4.511,4.766,14.953-18.673,3.566,3.07-18.52,23.2-8.482-8.907Z" transform="translate(7520.226 -1357.308)"/><path d="M19.7,13.976v.588a6.4,6.4,0,0,1-2.026,4.8,7.374,7.374,0,0,1-5.338,1.95A7.773,7.773,0,0,1,6.59,19.041a7.616,7.616,0,0,1-2.266-5.588,7.724,7.724,0,0,1,7.93-7.865,7.615,7.615,0,0,1,3.845,1,7.123,7.123,0,0,1,2.712,2.68l-1.024.61a5.788,5.788,0,0,0-2.255-2.309A6.385,6.385,0,0,0,12.254,6.7a6.516,6.516,0,0,0-4.869,1.95,6.606,6.606,0,0,0-1.906,4.8,6.612,6.612,0,0,0,6.863,6.754,6.315,6.315,0,0,0,4.335-1.46,5.363,5.363,0,0,0,1.852-3.682h-6.47V13.976Zm3.7,6.013h7.625v1.089h-8.78V5.828h8.671V6.917H23.409v5.926H30.38v1.089H23.409ZM42.885,5.828V6.917H38.092V21.078H36.916V6.917H32.123V5.828ZM8.093,38.8V26.9H4.607v15.25H13.54V38.8Zm6.623-11.9v15.25H18.2V26.9ZM27.744,42.459a7.552,7.552,0,0,0,6.536-3.529l-3.006-1.743a3.918,3.918,0,0,1-3.529,1.874A4.22,4.22,0,0,1,23.3,34.528,4.22,4.22,0,0,1,27.744,30a3.942,3.942,0,0,1,3.529,1.874l3.006-1.743A7.606,7.606,0,0,0,27.744,26.6a7.731,7.731,0,0,0-7.93,7.93A7.731,7.731,0,0,0,27.744,42.459ZM39.051,38.8V36.1H44.5V32.786H39.051V30.258h5.991V26.9H35.565v15.25h9.586V38.8ZM55.26,26.9v8.279L49.378,26.9H46.763v15.25h3.486V33.875l5.882,8.279h2.614V26.9ZM66.131,42.459c3.311,0,5.664-1.743,5.664-4.684,0-3.224-2.593-4.03-4.9-4.728-2.375-.719-2.745-1.2-2.745-1.9,0-.61.545-1.155,1.634-1.155a2.672,2.672,0,0,1,2.636,1.765l2.941-1.721A5.915,5.915,0,0,0,65.783,26.6c-2.636,0-5.12,1.7-5.12,4.64,0,2.919,2.222,4.009,4.488,4.64,2.288.632,3.159,1,3.159,1.939,0,.588-.414,1.242-2.07,1.242a3.194,3.194,0,0,1-3.2-2.113L60.031,38.69C60.881,40.934,62.929,42.459,66.131,42.459ZM76.567,38.8V36.1h5.447V32.786H76.567V30.258h5.991V26.9H73.081v15.25h9.586V38.8ZM90.379,26.9h-6.1v15.25h6.1a7.384,7.384,0,0,0,7.407-7.625A7.384,7.384,0,0,0,90.379,26.9Zm0,11.9H87.765v-8.54h2.614a3.926,3.926,0,0,1,4.052,4.27A3.926,3.926,0,0,1,90.379,38.8Z" transform="translate(700.796 413.647)"/></g></svg>